<?xml version="1.0" encoding="UTF-8" standalone="no"?>
<svg
   version="1.1"
   x="0px"
   y="0px"
   viewBox="0 0 100 100"
   id="svg1"
   sodipodi:docname="lesswrong.svg"
   inkscape:export-filename="lesswrong.svg"
   inkscape:export-xdpi="96"
   inkscape:export-ydpi="96"
   inkscape:version="1.3 (0e150ed, 2023-07-21)"
   xmlns:inkscape="http://www.inkscape.org/namespaces/inkscape"
   xmlns:sodipodi="http://sodipodi.sourceforge.net/DTD/sodipodi-0.dtd"
   xmlns="http://www.w3.org/2000/svg"
   xmlns:svg="http://www.w3.org/2000/svg">
  <defs
     id="defs1" />
  <sodipodi:namedview
     id="namedview1"
     pagecolor="#ffffff"
     bordercolor="#000000"
     borderopacity="0.25"
     inkscape:showpageshadow="2"
     inkscape:pageopacity="0.0"
     inkscape:pagecheckerboard="0"
     inkscape:deskcolor="#d1d1d1"
     inkscape:zoom="2.36"
     inkscape:cx="50"
     inkscape:cy="50"
     inkscape:window-width="1752"
     inkscape:window-height="831"
     inkscape:window-x="0"
     inkscape:window-y="25"
     inkscape:window-maximized="0"
     inkscape:current-layer="svg1" />
  <g
     fill="currentColor"
     id="g1"
     inkscape:export-filename="lesswrong.svg"
     inkscape:export-xdpi="96"
     inkscape:export-ydpi="96">
    <path
       d="M29.1,29.2l6.4,11.6l4.3-0.8l0.8-4.3L29.1,29.2z M40.7,64.5l-0.8-4.3l-4.3-0.8L29.2,71L40.7,64.5z M70.9,70.9l-6.4-11.6l-4.3,0.8l-0.8,4.3L70.9,70.9z M64.4,40.8l6.4-11.6l-11.6,6.4l0.8,4.3L64.4,40.8z M67.4,58.8l10.8,19.4L58.8,67.4L50,98.8l-8.8-31.4L21.9,78.2l10.8-19.4L1.2,50.1l31.4-8.8L21.9,21.9l19.4,10.8L50,1.3l8.8,31.4l19.4-10.8L67.4,41.3L98.8,50L67.4,58.8zM57.7,57.8L83.5,50L50,50.1l7.7-7.7L50,16.6v33.5l-7.7-7.7l-25.8,7.7H50l-7.7,7.7L50,83.5V50.1L57.7,57.8z"
       id="path1" />
  </g>
</svg>
